<?xml version='1.0' encoding='UTF-8' standalone='no'?>
<svg xmlns="http://www.w3.org/2000/svg" height="291pt" xmlns:xlink="http://www.w3.org/1999/xlink" width="394pt" viewBox="0 0 394 291">
 <title>Figure 1</title>
 <desc>
Creator: GL2PS 1.4.2, (C) 1999-2020 C. Geuzaine
For: Octave
CreationDate: Wed Feb 18 05:02:00 2026
</desc>
 <defs/>
 <polygon fill="#ffffff" points="0,0 394,0 394,291 0,291"/>
 <g>
  <polygon fill="#ffffff" points="0,291 394,291 394,0 0,0" shape-rendering="crispEdges"/>
  <clipPath id="cp00394291">
   <polygon points="0,291 394,291 394,0 0,0"/>
  </clipPath>
  <g clip-path="url(#cp00394291)">
   <polygon fill="#ffffff" points="51.2383,259.33 356.697,259.33 356.697,21.8536 51.2383,21.8536" shape-rendering="crispEdges"/>
   <polyline stroke-width="0.5" stroke-linejoin="miter" fill="none" stroke-linecap="butt" points="81.7841,259.33 81.7841,256.27" stroke="#262626"/>
   <polyline stroke-width="0.5" stroke-linejoin="miter" fill="none" stroke-linecap="butt" points="112.33,259.33 112.33,256.27" stroke="#262626"/>
   <polyline stroke-width="0.5" stroke-linejoin="miter" fill="none" stroke-linecap="butt" points="142.876,259.33 142.876,256.27" stroke="#262626"/>
   <polyline stroke-width="0.5" stroke-linejoin="miter" fill="none" stroke-linecap="butt" points="173.422,259.33 173.422,256.27" stroke="#262626"/>
   <polyline stroke-width="0.5" stroke-linejoin="miter" fill="none" stroke-linecap="butt" points="203.968,259.33 203.968,256.27" stroke="#262626"/>
   <polyline stroke-width="0.5" stroke-linejoin="miter" fill="none" stroke-linecap="butt" points="234.513,259.33 234.513,256.27" stroke="#262626"/>
   <polyline stroke-width="0.5" stroke-linejoin="miter" fill="none" stroke-linecap="butt" points="265.059,259.33 265.059,256.27" stroke="#262626"/>
   <polyline stroke-width="0.5" stroke-linejoin="miter" fill="none" stroke-linecap="butt" points="295.605,259.33 295.605,256.27" stroke="#262626"/>
   <polyline stroke-width="0.5" stroke-linejoin="miter" fill="none" stroke-linecap="butt" points="326.151,259.33 326.151,256.27" stroke="#262626"/>
   <g font-family="FreeSans" xml:space="preserve" font-weight="normal" font-size="6" transform="translate(80.2841,269.839) rotate(-0,1.5,-6)" font-style="normal">
    <text fill="rgb(38,38,38)" y="-0" x="0 ">1</text>
   </g>
   <g font-family="FreeSans" xml:space="preserve" font-weight="normal" font-size="6" transform="translate(110.83,269.839) rotate(-0,1.5,-6)" font-style="normal">
    <text fill="rgb(38,38,38)" y="-0" x="0 ">2</text>
   </g>
   <g font-family="FreeSans" xml:space="preserve" font-weight="normal" font-size="6" transform="translate(141.376,269.839) rotate(-0,1.5,-6)" font-style="normal">
    <text fill="rgb(38,38,38)" y="-0" x="0 ">3</text>
   </g>
   <g font-family="FreeSans" xml:space="preserve" font-weight="normal" font-size="6" transform="translate(171.922,269.839) rotate(-0,1.5,-6)" font-style="normal">
    <text fill="rgb(38,38,38)" y="-0" x="0 ">4</text>
   </g>
   <g font-family="FreeSans" xml:space="preserve" font-weight="normal" font-size="6" transform="translate(202.468,269.839) rotate(-0,1.5,-6)" font-style="normal">
    <text fill="rgb(38,38,38)" y="-0" x="0 ">5</text>
   </g>
   <g font-family="FreeSans" xml:space="preserve" font-weight="normal" font-size="6" transform="translate(233.013,269.839) rotate(-0,1.5,-6)" font-style="normal">
    <text fill="rgb(38,38,38)" y="-0" x="0 ">6</text>
   </g>
   <g font-family="FreeSans" xml:space="preserve" font-weight="normal" font-size="6" transform="translate(263.559,269.839) rotate(-0,1.5,-6)" font-style="normal">
    <text fill="rgb(38,38,38)" y="-0" x="0 ">7</text>
   </g>
   <g font-family="FreeSans" xml:space="preserve" font-weight="normal" font-size="6" transform="translate(294.105,269.839) rotate(-0,1.5,-6)" font-style="normal">
    <text fill="rgb(38,38,38)" y="-0" x="0 ">8</text>
   </g>
   <g font-family="FreeSans" xml:space="preserve" font-weight="normal" font-size="6" transform="translate(324.651,269.839) rotate(-0,1.5,-6)" font-style="normal">
    <text fill="rgb(38,38,38)" y="-0" x="0 ">9</text>
   </g>
   <polyline stroke-width="0.5" stroke-linejoin="miter" fill="none" stroke-linecap="butt" points="51.2383,259.33 54.2974,259.33" stroke="#262626"/>
   <polyline stroke-width="0.5" stroke-linejoin="miter" fill="none" stroke-linecap="butt" points="51.2383,211.835 54.2974,211.835" stroke="#262626"/>
   <polyline stroke-width="0.5" stroke-linejoin="miter" fill="none" stroke-linecap="butt" points="51.2383,164.34 54.2974,164.34" stroke="#262626"/>
   <polyline stroke-width="0.5" stroke-linejoin="miter" fill="none" stroke-linecap="butt" points="51.2383,116.844 54.2974,116.844" stroke="#262626"/>
   <polyline stroke-width="0.5" stroke-linejoin="miter" fill="none" stroke-linecap="butt" points="51.2383,69.349 54.2974,69.349" stroke="#262626"/>
   <polyline stroke-width="0.5" stroke-linejoin="miter" fill="none" stroke-linecap="butt" points="51.2383,21.8536 54.2974,21.8536" stroke="#262626"/>
   <g font-family="FreeSans" xml:space="preserve" font-weight="normal" font-size="6" transform="translate(45.2337,262.33) rotate(-0,3,-3)" font-style="normal">
    <text fill="rgb(38,38,38)" y="-0" x="0 ">0</text>
   </g>
   <g font-family="FreeSans" xml:space="preserve" font-weight="normal" font-size="6" transform="translate(42.2337,214.835) rotate(-0,6,-3)" font-style="normal">
    <text fill="rgb(38,38,38)" y="-0" x="0 3 ">50</text>
   </g>
   <g font-family="FreeSans" xml:space="preserve" font-weight="normal" font-size="6" transform="translate(39.2337,167.34) rotate(-0,9,-3)" font-style="normal">
    <text fill="rgb(38,38,38)" y="-0" x="0 3 6 ">100</text>
   </g>
   <g font-family="FreeSans" xml:space="preserve" font-weight="normal" font-size="6" transform="translate(39.2337,119.844) rotate(-0,9,-3)" font-style="normal">
    <text fill="rgb(38,38,38)" y="-0" x="0 3 6 ">150</text>
   </g>
   <g font-family="FreeSans" xml:space="preserve" font-weight="normal" font-size="6" transform="translate(39.2337,72.349) rotate(-0,9,-3)" font-style="normal">
    <text fill="rgb(38,38,38)" y="-0" x="0 3 6 ">200</text>
   </g>
   <g font-family="FreeSans" xml:space="preserve" font-weight="normal" font-size="6" transform="translate(39.2337,24.8537) rotate(-0,9,-3)" font-style="normal">
    <text fill="rgb(38,38,38)" y="-0" x="0 3 6 ">250</text>
   </g>
   <polyline stroke-width="0.5" stroke-dasharray="16,0" stroke-linejoin="miter" fill="none" stroke-linecap="square" points="51.2383,259.33 356.697,259.33" stroke="#262626"/>
   <polyline stroke-width="0.5" stroke-dasharray="16,0" stroke-linejoin="miter" fill="none" stroke-linecap="square" points="51.2383,259.33 51.2383,21.8536" stroke="#262626"/>
   <g font-family="FreeSans" xml:space="preserve" font-weight="normal" font-size="6.6" transform="translate(193.968,282.839) rotate(-0,10,-8)" font-style="normal">
    <text fill="rgb(38,38,38)" y="-2" x="0 4 8 10 14 18 ">Target</text>
   </g>
   <g font-family="FreeSans" xml:space="preserve" font-weight="normal" font-size="6.6" transform="translate(17.2337,140.592) rotate(-90,17,0)" font-style="normal">
    <text fill="rgb(38,38,38)" y="-2" x="0 5 9 13 15 16 21 25 27 29 32 ">Runtime (s)</text>
   </g>
   <g font-family="FreeSans" xml:space="preserve" font-weight="bold" font-size="6.6" transform="translate(139.468,11.8537) rotate(-0,64.5,0)" font-style="normal">
    <text fill="rgb(0,0,0)" y="-2" x="0 5 9 15 19 23 26 28 32 36 40 42 46 48 50 55 59 63 65 67 73 77 81 83 85 89 92 94 99 103 107 111 115 118 122 126 ">Comparison of Runtimes for AdaParser</text>
   </g>
   <polygon fill="#88085c" points="94.0025,259.33 94.0025,240.788 69.5658,240.788 69.5658,259.33" shape-rendering="crispEdges"/>
   <polyline stroke-width="0.5" stroke-linejoin="miter" fill="none" stroke-linecap="butt" points="94.0025,240.788 69.5658,240.788 69.5658,259.33 94.0025,259.33 94.0025,240.788" stroke="#000000"/>
   <polyline stroke-width="0.5" stroke-linejoin="round" fill="none" stroke-linecap="butt" points="51.2383,259.33 356.697,259.33" stroke="#000000"/>
   <polygon fill="#e8600a" points="124.548,259.33 124.548,247.957 100.112,247.957 100.112,259.33" shape-rendering="crispEdges"/>
   <polyline stroke-width="0.5" stroke-linejoin="miter" fill="none" stroke-linecap="butt" points="124.548,247.957 100.112,247.957 100.112,259.33 124.548,259.33 124.548,247.957" stroke="#000000"/>
   <polyline stroke-width="0.5" stroke-linejoin="round" fill="none" stroke-linecap="butt" points="51.2383,259.33 356.697,259.33" stroke="#000000"/>
   <polygon fill="#5468ff" points="155.094,259.33 155.094,249.147 130.658,249.147 130.658,259.33" shape-rendering="crispEdges"/>
   <polyline stroke-width="0.5" stroke-linejoin="miter" fill="none" stroke-linecap="butt" points="155.094,249.147 130.658,249.147 130.658,259.33 155.094,259.33 155.094,249.147" stroke="#000000"/>
   <polyline stroke-width="0.5" stroke-linejoin="round" fill="none" stroke-linecap="butt" points="51.2383,259.33 356.697,259.33" stroke="#000000"/>
   <polygon fill="#ee243c" points="185.64,259.33 185.64,250.639 161.203,250.639 161.203,259.33" shape-rendering="crispEdges"/>
   <polyline stroke-width="0.5" stroke-linejoin="miter" fill="none" stroke-linecap="butt" points="185.64,250.639 161.203,250.639 161.203,259.33 185.64,259.33 185.64,250.639" stroke="#000000"/>
   <polyline stroke-width="0.5" stroke-linejoin="round" fill="none" stroke-linecap="butt" points="51.2383,259.33 356.697,259.33" stroke="#000000"/>
   <polygon fill="#fcd34d" points="216.186,259.33 216.186,247.774 191.749,247.774 191.749,259.33" shape-rendering="crispEdges"/>
   <polyline stroke-width="0.5" stroke-linejoin="miter" fill="none" stroke-linecap="butt" points="216.186,247.774 191.749,247.774 191.749,259.33 216.186,259.33 216.186,247.774" stroke="#000000"/>
   <polyline stroke-width="0.5" stroke-linejoin="round" fill="none" stroke-linecap="butt" points="51.2383,259.33 356.697,259.33" stroke="#000000"/>
   <polygon fill="#7ee787" points="246.732,259.33 246.732,254.853 222.295,254.853 222.295,259.33" shape-rendering="crispEdges"/>
   <polyline stroke-width="0.5" stroke-linejoin="miter" fill="none" stroke-linecap="butt" points="246.732,254.853 222.295,254.853 222.295,259.33 246.732,259.33 246.732,254.853" stroke="#000000"/>
   <polyline stroke-width="0.5" stroke-linejoin="round" fill="none" stroke-linecap="butt" points="51.2383,259.33 356.697,259.33" stroke="#000000"/>
   <polygon fill="#f17fa2" points="277.278,259.33 277.278,234.679 252.841,234.679 252.841,259.33" shape-rendering="crispEdges"/>
   <polyline stroke-width="0.5" stroke-linejoin="miter" fill="none" stroke-linecap="butt" points="277.278,234.679 252.841,234.679 252.841,259.33 277.278,259.33 277.278,234.679" stroke="#000000"/>
   <polyline stroke-width="0.5" stroke-linejoin="round" fill="none" stroke-linecap="butt" points="51.2383,259.33 356.697,259.33" stroke="#000000"/>
   <polygon fill="#5bc1d7" points="307.824,259.33 307.824,45.8735 283.387,45.8735 283.387,259.33" shape-rendering="crispEdges"/>
   <polyline stroke-width="0.5" stroke-linejoin="miter" fill="none" stroke-linecap="butt" points="307.824,45.8735 283.387,45.8735 283.387,259.33 307.824,259.33 307.824,45.8735" stroke="#000000"/>
   <polyline stroke-width="0.5" stroke-linejoin="round" fill="none" stroke-linecap="butt" points="51.2383,259.33 356.697,259.33" stroke="#000000"/>
   <polygon fill="#56c271" points="338.369,259.33 338.369,234.482 313.933,234.482 313.933,259.33" shape-rendering="crispEdges"/>
   <polyline stroke-width="0.5" stroke-linejoin="miter" fill="none" stroke-linecap="butt" points="338.369,234.482 313.933,234.482 313.933,259.33 338.369,259.33 338.369,234.482" stroke="#000000"/>
   <polyline stroke-width="0.5" stroke-linejoin="round" fill="none" stroke-linecap="butt" points="51.2383,259.33 356.697,259.33" stroke="#000000"/>
   <polyline stroke-width="1" stroke-linejoin="round" fill="none" stroke-linecap="butt" points="81.7841,241.316 81.7841,240.26" stroke="#000000"/>
   <polyline stroke-width="1" stroke-linejoin="round" fill="none" stroke-linecap="butt" points="79.3405,240.26 84.2278,240.26" stroke="#000000"/>
   <polyline stroke-width="1" stroke-linejoin="round" fill="none" stroke-linecap="butt" points="79.3405,241.316 84.2278,241.316" stroke="#000000"/>
   <polyline stroke-width="1" stroke-linejoin="round" fill="none" stroke-linecap="butt" points="112.33,248.122 112.33,247.793" stroke="#000000"/>
   <polyline stroke-width="1" stroke-linejoin="round" fill="none" stroke-linecap="butt" points="109.886,247.793 114.774,247.793" stroke="#000000"/>
   <polyline stroke-width="1" stroke-linejoin="round" fill="none" stroke-linecap="butt" points="109.886,248.122 114.774,248.122" stroke="#000000"/>
   <polyline stroke-width="1" stroke-linejoin="round" fill="none" stroke-linecap="butt" points="142.876,249.381 142.876,248.912" stroke="#000000"/>
   <polyline stroke-width="1" stroke-linejoin="round" fill="none" stroke-linecap="butt" points="140.432,248.912 145.32,248.912" stroke="#000000"/>
   <polyline stroke-width="1" stroke-linejoin="round" fill="none" stroke-linecap="butt" points="140.432,249.381 145.32,249.381" stroke="#000000"/>
   <polyline stroke-width="1" stroke-linejoin="round" fill="none" stroke-linecap="butt" points="173.422,250.821 173.422,250.457" stroke="#000000"/>
   <polyline stroke-width="1" stroke-linejoin="round" fill="none" stroke-linecap="butt" points="170.978,250.457 175.865,250.457" stroke="#000000"/>
   <polyline stroke-width="1" stroke-linejoin="round" fill="none" stroke-linecap="butt" points="170.978,250.821 175.865,250.821" stroke="#000000"/>
   <polyline stroke-width="1" stroke-linejoin="round" fill="none" stroke-linecap="butt" points="203.968,247.808 203.968,247.741" stroke="#000000"/>
   <polyline stroke-width="1" stroke-linejoin="round" fill="none" stroke-linecap="butt" points="201.524,247.741 206.411,247.741" stroke="#000000"/>
   <polyline stroke-width="1" stroke-linejoin="round" fill="none" stroke-linecap="butt" points="201.524,247.808 206.411,247.808" stroke="#000000"/>
   <polyline stroke-width="1" stroke-linejoin="round" fill="none" stroke-linecap="butt" points="234.513,254.939 234.513,254.767" stroke="#000000"/>
   <polyline stroke-width="1" stroke-linejoin="round" fill="none" stroke-linecap="butt" points="232.07,254.767 236.957,254.767" stroke="#000000"/>
   <polyline stroke-width="1" stroke-linejoin="round" fill="none" stroke-linecap="butt" points="232.07,254.939 236.957,254.939" stroke="#000000"/>
   <polyline stroke-width="1" stroke-linejoin="round" fill="none" stroke-linecap="butt" points="265.059,235.535 265.059,233.822" stroke="#000000"/>
   <polyline stroke-width="1" stroke-linejoin="round" fill="none" stroke-linecap="butt" points="262.616,233.822 267.503,233.822" stroke="#000000"/>
   <polyline stroke-width="1" stroke-linejoin="round" fill="none" stroke-linecap="butt" points="262.616,235.535 267.503,235.535" stroke="#000000"/>
   <polyline stroke-width="1" stroke-linejoin="round" fill="none" stroke-linecap="butt" points="295.605,49.9826 295.605,41.7643" stroke="#000000"/>
   <polyline stroke-width="1" stroke-linejoin="round" fill="none" stroke-linecap="butt" points="293.162,41.7643 298.049,41.7643" stroke="#000000"/>
   <polyline stroke-width="1" stroke-linejoin="round" fill="none" stroke-linecap="butt" points="293.162,49.9826 298.049,49.9826" stroke="#000000"/>
   <polyline stroke-width="1" stroke-linejoin="round" fill="none" stroke-linecap="butt" points="326.151,234.898 326.151,234.066" stroke="#000000"/>
   <polyline stroke-width="1" stroke-linejoin="round" fill="none" stroke-linecap="butt" points="323.707,234.066 328.595,234.066" stroke="#000000"/>
   <polyline stroke-width="1" stroke-linejoin="round" fill="none" stroke-linecap="butt" points="323.707,234.898 328.595,234.898" stroke="#000000"/>
  </g>
  <clipPath id="cp00394291">
   <polygon points="0,291 394,291 394,0 0,0"/>
  </clipPath>
  <g clip-path="url(#cp00394291)">
   <polygon fill="#ffffff" points="59.7631,149.727 120.863,149.727 120.863,30.3786 59.7631,30.3786" shape-rendering="crispEdges"/>
   <polyline stroke-width="0.5" stroke-dasharray="16,0" stroke-linejoin="miter" fill="none" stroke-linecap="square" points="59.7631,149.727 120.863,149.727" stroke="#262626"/>
   <polyline stroke-width="0.5" stroke-dasharray="16,0" stroke-linejoin="miter" fill="none" stroke-linecap="square" points="59.7631,30.3786 120.863,30.3786" stroke="#262626"/>
   <polyline stroke-width="0.5" stroke-dasharray="16,0" stroke-linejoin="miter" fill="none" stroke-linecap="square" points="59.7631,149.727 59.7631,30.3786" stroke="#262626"/>
   <polyline stroke-width="0.5" stroke-dasharray="16,0" stroke-linejoin="miter" fill="none" stroke-linecap="square" points="120.863,149.727 120.863,30.3786" stroke="#262626"/>
   <polygon fill="#88085c" points="85.3378,41.5888 85.3378,36.2181 64.0256,36.2181 64.0256,41.5888" shape-rendering="crispEdges"/>
   <polyline stroke-width="0.5" stroke-linejoin="miter" fill="none" stroke-linecap="butt" points="85.3378,36.2181 64.0256,36.2181 64.0256,41.5888 85.3378,41.5888 85.3378,36.2181" stroke="#000000"/>
   <g font-family="FreeSans" xml:space="preserve" font-weight="normal" font-size="5.4" transform="translate(89.6002,41.9034) rotate(-0,-0,-3)" font-style="normal">
    <text fill="rgb(0,0,0)" y="-1" x="0 4 7 9 10 12 15 18 ">Antlr4ng</text>
   </g>
   <polygon fill="#e8600a" points="85.3378,54.3761 85.3378,49.0054 64.0256,49.0054 64.0256,54.3761" shape-rendering="crispEdges"/>
   <polyline stroke-width="0.5" stroke-linejoin="miter" fill="none" stroke-linecap="butt" points="85.3378,49.0054 64.0256,49.0054 64.0256,54.3761 85.3378,54.3761 85.3378,49.0054" stroke="#000000"/>
   <g font-family="FreeSans" xml:space="preserve" font-weight="normal" font-size="5.4" transform="translate(89.6002,55.1908) rotate(-0,-0,-3.5)" font-style="normal">
    <text fill="rgb(0,0,0)" y="-2" x="0 4 7 ">Cpp</text>
   </g>
   <polygon fill="#5468ff" points="85.3378,67.1634 85.3378,61.7928 64.0256,61.7928 64.0256,67.1634" shape-rendering="crispEdges"/>
   <polyline stroke-width="0.5" stroke-linejoin="miter" fill="none" stroke-linecap="butt" points="85.3378,61.7928 64.0256,61.7928 64.0256,67.1634 85.3378,67.1634 85.3378,61.7928" stroke="#000000"/>
   <g font-family="FreeSans" xml:space="preserve" font-weight="normal" font-size="5.4" transform="translate(89.6002,67.9781) rotate(-0,-0,-3.5)" font-style="normal">
    <text fill="rgb(0,0,0)" y="-2" x="0 4 8 11 14 16 ">CSharp</text>
   </g>
   <polygon fill="#ee243c" points="85.3378,79.9508 85.3378,74.5801 64.0256,74.5801 64.0256,79.9508" shape-rendering="crispEdges"/>
   <polyline stroke-width="0.5" stroke-linejoin="miter" fill="none" stroke-linecap="butt" points="85.3378,74.5801 64.0256,74.5801 64.0256,79.9508 85.3378,79.9508 85.3378,74.5801" stroke="#000000"/>
   <g font-family="FreeSans" xml:space="preserve" font-weight="normal" font-size="5.4" transform="translate(89.6002,79.7654) rotate(-0,-0,-2.5)" font-style="normal">
    <text fill="rgb(0,0,0)" y="-0" x="0 4 7 9 ">Dart</text>
   </g>
   <polygon fill="#fcd34d" points="85.3378,92.7381 85.3378,87.3674 64.0256,87.3674 64.0256,92.7381" shape-rendering="crispEdges"/>
   <polyline stroke-width="0.5" stroke-linejoin="miter" fill="none" stroke-linecap="butt" points="85.3378,87.3674 64.0256,87.3674 64.0256,92.7381 85.3378,92.7381 85.3378,87.3674" stroke="#000000"/>
   <g font-family="FreeSans" xml:space="preserve" font-weight="normal" font-size="5.4" transform="translate(89.6002,93.0527) rotate(-0,-0,-3)" font-style="normal">
    <text fill="rgb(0,0,0)" y="-1" x="0 4 ">Go</text>
   </g>
   <polygon fill="#7ee787" points="85.3378,105.525 85.3378,100.155 64.0256,100.155 64.0256,105.525" shape-rendering="crispEdges"/>
   <polyline stroke-width="0.5" stroke-linejoin="miter" fill="none" stroke-linecap="butt" points="85.3378,100.155 64.0256,100.155 64.0256,105.525 85.3378,105.525 85.3378,100.155" stroke="#000000"/>
   <g font-family="FreeSans" xml:space="preserve" font-weight="normal" font-size="5.4" transform="translate(89.6002,105.34) rotate(-0,-0,-2.5)" font-style="normal">
    <text fill="rgb(0,0,0)" y="-0" x="0 3 6 9 ">Java</text>
   </g>
   <polygon fill="#f17fa2" points="85.3378,118.313 85.3378,112.942 64.0256,112.942 64.0256,118.313" shape-rendering="crispEdges"/>
   <polyline stroke-width="0.5" stroke-linejoin="miter" fill="none" stroke-linecap="butt" points="85.3378,112.942 64.0256,112.942 64.0256,118.313 85.3378,118.313 85.3378,112.942" stroke="#000000"/>
   <g font-family="FreeSans" xml:space="preserve" font-weight="normal" font-size="5.4" transform="translate(89.6002,119.127) rotate(-0,-0,-3.5)" font-style="normal">
    <text fill="rgb(0,0,0)" y="-2" x="0 3 6 9 12 16 19 21 22 25 ">JavaScript</text>
   </g>
   <polygon fill="#5bc1d7" points="85.3378,131.1 85.3378,125.729 64.0256,125.729 64.0256,131.1" shape-rendering="crispEdges"/>
   <polyline stroke-width="0.5" stroke-linejoin="miter" fill="none" stroke-linecap="butt" points="85.3378,125.729 64.0256,125.729 64.0256,131.1 85.3378,131.1 85.3378,125.729" stroke="#000000"/>
   <g font-family="FreeSans" xml:space="preserve" font-weight="normal" font-size="5.4" transform="translate(89.6002,131.415) rotate(-0,-0,-3)" font-style="normal">
    <text fill="rgb(0,0,0)" y="-1" x="0 4 7 9 12 15 18 ">Python3</text>
   </g>
   <polygon fill="#56c271" points="85.3378,143.887 85.3378,138.517 64.0256,138.517 64.0256,143.887" shape-rendering="crispEdges"/>
   <polyline stroke-width="0.5" stroke-linejoin="miter" fill="none" stroke-linecap="butt" points="85.3378,138.517 64.0256,138.517 64.0256,143.887 85.3378,143.887 85.3378,138.517" stroke="#000000"/>
   <g font-family="FreeSans" xml:space="preserve" font-weight="normal" font-size="5.4" transform="translate(89.6002,144.702) rotate(-0,-0,-3.5)" font-style="normal">
    <text fill="rgb(0,0,0)" y="-2" x="0 3 6 9 12 16 19 21 22 25 ">TypeScript</text>
   </g>
  </g>
 </g>
</svg>
